<?xml version="1.0" encoding="utf-8"?>
<!-- Generator: Adobe Illustrator 19.2.1, SVG Export Plug-In . SVG Version: 6.00 Build 0)  -->
<svg version="1.1" id="Capa_1" xmlns="http://www.w3.org/2000/svg" xmlns:xlink="http://www.w3.org/1999/xlink" x="0px" y="0px"
	 viewBox="0 0 1104 333" style="enable-background:new 0 0 1104 333;" xml:space="preserve">
<style type="text/css">
	.st0{fill:#231249;}
</style>
<path class="st0" d="M1104,237.5l-36.8,17c-36.8,17-110.4,50.9-184,45.3c-73.6-6.1-147.2-50.6-220.8-56.6
	c-73.6-5.6-147.2,28.3-220.8,50.9c-73.6,23-147.2,33.6-220.8,22.7c-73.6-11.4-147.2-45.3-184-62.3L0,237.5V0h36.8
	c36.8,0,110.4,0,184,0S368,0,441.6,0s147.2,0,220.8,0s147.2,0,220.8,0s147.2,0,184,0h36.8V237.5z"/>
</svg>
